<svg width="250" height="250" viewBox="0 0 250 250" fill="none" xmlns="http://www.w3.org/2000/svg">
<path d="M124.807 145.754C136.353 145.754 145.712 136.394 145.712 124.848C145.712 113.302 136.353 103.942 124.807 103.942C113.261 103.942 103.901 113.302 103.901 124.848C103.901 136.394 113.261 145.754 124.807 145.754Z" fill="#0397D2"/>
<path d="M124.807 82.3454C152.87 82.3454 178.944 86.3732 198.599 93.1369C222.282 101.289 236.846 113.649 236.846 124.841C236.846 136.503 221.412 149.637 195.981 158.058C176.753 164.428 151.447 167.758 124.807 167.758C97.4894 167.758 71.6299 164.636 52.1818 157.989C27.5798 149.581 12.7605 136.282 12.7605 124.841C12.7605 113.739 26.6678 101.476 50.0194 93.3372C69.7508 86.463 96.4669 82.3454 124.807 82.3454V82.3454Z" stroke="#07ADEF" stroke-width="7" stroke-miterlimit="10"/>
<path d="M87.8102 103.721C101.828 79.4092 118.347 58.8349 134.03 45.1901C152.925 28.7473 170.909 22.3084 180.602 27.8976C190.702 33.7216 194.371 53.6534 188.961 79.8997C184.871 99.7416 175.116 123.321 161.803 146.403C148.158 170.066 132.531 190.909 117.062 204.437C97.4894 221.55 78.5594 227.74 68.6522 222.026C59.0353 216.479 55.3598 198.309 59.9679 174.011C63.8645 153.464 73.6473 128.268 87.8102 103.721V103.721Z" stroke="#07ADEF" stroke-width="7" stroke-miterlimit="10"/>
<path d="M87.8448 146.452C73.7855 122.161 64.21 97.5792 60.2167 77.1777C55.4083 52.5963 58.8074 33.7976 68.4934 28.1946C78.5871 22.3498 97.6829 29.1273 117.718 46.9173C132.869 60.3687 148.421 80.5975 161.768 103.659C175.455 127.301 185.714 151.246 189.701 171.399C194.751 196.906 190.661 216.396 180.761 222.123C171.151 227.685 153.575 221.799 134.824 205.667C118.989 192.036 102.042 170.978 87.8448 146.452V146.452Z" stroke="#07ADEF" stroke-width="7" stroke-miterlimit="10"/>
<circle cx="68" cy="29" r="8" fill="#0397D2"/>
<circle cx="183" cy="224" r="8" fill="#0397D2"/>
<circle cx="184" cy="29" r="8" fill="#0397D2"/>
<circle cx="68" cy="224" r="8" fill="#0397D2"/>
<circle cx="237" cy="125" r="8" fill="#0397D2"/>
<circle cx="13" cy="125" r="8" fill="#0397D2"/>
</svg>
