<?xml version="1.0" encoding="utf-8"?>
<!-- Generator: Adobe Illustrator 26.0.2, SVG Export Plug-In . SVG Version: 6.00 Build 0)  -->
<svg version="1.1" id="Layer_1" xmlns="http://www.w3.org/2000/svg" xmlns:xlink="http://www.w3.org/1999/xlink" x="0px" y="0px"
	 viewBox="0 0 444 45" style="enable-background:new 0 0 444 45;" xml:space="preserve">
<style type="text/css">
	.st0{fill:url(#SVGID_1_);}
	.st1{fill:#FFFFFF;}
</style>
<g>
	<linearGradient id="SVGID_1_" gradientUnits="userSpaceOnUse" x1="3.3111" y1="23.2032" x2="112.7069" y2="23.2032">
		<stop  offset="0" style="stop-color:#0F60FF"/>
		<stop  offset="0.2747" style="stop-color:#3955FE"/>
		<stop  offset="0.5971" style="stop-color:#634AFC"/>
		<stop  offset="0.85" style="stop-color:#7D44FB"/>
		<stop  offset="1" style="stop-color:#8741FB"/>
	</linearGradient>
	<path class="st0" d="M109.98,42.9c-7.21,0-10.15-9.61-13-18.9c-1.94-6.35-4.61-15.05-7.79-15.05S83.35,17.65,81.4,24
		c-2.85,9.29-5.79,18.9-13,18.9c-7.21,0-10.15-9.61-13-18.9c-1.94-6.35-4.61-15.05-7.79-15.05c-3.18,0-5.85,8.7-7.79,15.05
		c-2.84,9.29-5.79,18.9-13,18.9c-7.21,0-10.15-9.61-13-18.91C11.88,17.65,9.22,8.95,6.03,8.95c-1.5,0-2.72-1.22-2.72-2.72
		S4.53,3.5,6.03,3.5c7.21,0,10.15,9.61,13,18.9c1.94,6.35,4.61,15.05,7.79,15.05c3.18,0,5.85-8.7,7.79-15.05
		c2.84-9.29,5.79-18.9,13-18.9c7.21,0,10.15,9.61,13,18.91c1.94,6.35,4.61,15.05,7.79,15.05c3.18,0,5.85-8.7,7.79-15.05
		c2.85-9.29,5.79-18.9,13-18.9c7.21,0,10.15,9.61,13,18.9c1.94,6.35,4.61,15.05,7.79,15.05c1.5,0,2.72,1.22,2.72,2.72
		S111.49,42.9,109.98,42.9z"/>
	<g>
		<path class="st1" d="M129.94,2.8h9.73l10.89,30.89h0.11L161.27,2.8h9.62v39.46h-6.58V11.8h-0.11l-10.94,30.45h-5.69L136.63,11.8
			h-0.11v30.45h-6.58V2.8L129.94,2.8z"/>
		<path class="st1" d="M178.46,2.8h28.41v5.97h-21.5V19.1h19.9v5.64h-19.9v11.55h21.88v5.97h-28.79V2.8L178.46,2.8z"/>
		<path class="st1" d="M212.45,2.8h9.73l10.89,30.89h0.11L243.78,2.8h9.62v39.46h-6.58V11.8h-0.11l-10.94,30.45h-5.69L219.13,11.8
			h-0.11v30.45h-6.58L212.45,2.8L212.45,2.8z"/>
		<path class="st1" d="M260.97,2.8h19.18c7.07,0,11.72,3.21,11.72,9.78c0,3.98-2.04,6.85-5.64,8.4v0.11
			c4.86,1.05,7.41,4.81,7.41,10.17c0,6.19-4.31,11-14.53,11h-18.13V2.8z M267.88,19.32h11.27c3.32,0,5.8-1.93,5.8-5.47
			c0-3.98-2.04-5.42-5.8-5.42h-11.27V19.32z M267.88,36.62h12.21c4.2,0,6.63-2.27,6.63-6.24c0-3.92-2.43-6.08-6.63-6.08h-12.21
			V36.62z"/>
		<path class="st1" d="M299.16,2.8H318c8.68,0,13.04,3.98,13.04,10.67c0,7.57-5.2,9.51-6.52,9.95v0.11
			c2.38,0.28,5.86,2.16,5.86,8.34c0,4.64,0.66,8.79,2.16,10.39h-7.41c-1.05-1.71-1.05-3.87-1.05-5.8c0-7.24-1.49-10.45-7.85-10.45
			h-10.17v16.25h-6.91L299.16,2.8L299.16,2.8z M306.06,20.76h11.33c4.42,0,6.74-2.1,6.74-6.3c0-5.08-3.26-6.02-6.85-6.02h-11.22
			L306.06,20.76L306.06,20.76z"/>
		<path class="st1" d="M347.9,2.8h7.35l15.2,39.46h-7.41l-3.7-10.44h-15.75l-3.7,10.44h-7.13L347.9,2.8z M345.47,26.56h12.05
			L351.6,9.59h-0.17L345.47,26.56z"/>
		<path class="st1" d="M373.21,2.8h7.3l18.02,29.07h0.11V2.8h6.58v39.46h-7.3l-17.96-29.01h-0.17v29.01h-6.58V2.8z"/>
		<path class="st1" d="M412.67,2.8h28.41v5.97h-21.5V19.1h19.9v5.64h-19.9v11.55h21.89v5.97h-28.79V2.8z"/>
	</g>
</g>
</svg>
